<?xml version="1.0" standalone="no"?>
<!DOCTYPE svg PUBLIC "-//W3C//DTD SVG 20010904//EN"
 "http://www.w3.org/TR/2001/REC-SVG-20010904/DTD/svg10.dtd">
<svg version="1.0" xmlns="http://www.w3.org/2000/svg"
 width="16.000000pt" height="16.000000pt" viewBox="0 0 16.000000 16.000000"
 preserveAspectRatio="xMidYMid meet">
<metadata>
Created by potrace 1.11, written by Peter Selinger 2001-2013
</metadata>
<g transform="translate(0.000000,16.000000) scale(0.004571,-0.004571)"
fill="#000000" stroke="none">
<path d="M1578 3485 c-2 -2 -27 -6 -57 -9 -426 -51 -859 -296 -1133 -641 -168
-211 -308 -515 -344 -740 -3 -22 -7 -42 -9 -45 -18 -30 -27 -391 -12 -510 31
-250 129 -517 269 -732 30 -46 64 -95 74 -108 182 -224 374 -381 609 -498 159
-79 295 -124 480 -158 103 -19 401 -27 485 -13 30 5 73 11 95 14 141 21 329
82 479 156 344 172 615 443 784 784 86 173 147 374 169 550 10 77 10 340 1
427 -33 298 -170 627 -366 873 -53 67 -167 185 -242 251 -92 80 -273 193 -400
248 -36 16 -78 34 -95 42 -61 26 -244 76 -328 89 -126 19 -179 23 -309 23 -81
-1 -149 -2 -150 -3z m-615 -977 c3 -7 105 -272 226 -588 122 -316 225 -584
230 -595 5 -11 17 -40 26 -65 9 -25 26 -66 36 -92 l19 -48 -93 0 -92 0 -74
195 -74 195 -297 0 -297 0 -69 -195 -68 -195 -93 0 c-92 0 -92 0 -84 23 5 12
42 110 84 217 41 107 157 409 257 670 100 261 184 478 187 483 8 13 170 8 176
-5z m1024 -138 c35 -80 70 -158 77 -175 54 -117 277 -630 312 -715 39 -96 43
-103 52 -80 35 89 76 187 112 265 23 50 47 104 55 120 61 137 155 345 186 413
22 46 39 85 39 87 0 2 20 45 44 97 24 51 46 103 50 116 7 21 12 22 112 22
l104 0 0 -700 0 -700 -81 0 -80 0 3 598 3 597 -21 -65 c-12 -36 -33 -90 -47
-120 -14 -30 -105 -235 -202 -455 -97 -220 -193 -435 -213 -477 l-35 -78 -41
0 c-40 0 -41 1 -65 58 -14 31 -37 84 -52 117 -15 33 -45 101 -67 150 -22 50
-51 115 -65 145 -14 30 -55 123 -92 205 -37 83 -78 175 -92 204 -61 136 -105
244 -110 277 -3 19 -9 37 -14 40 -4 2 -6 -6 -3 -18 4 -19 6 -659 4 -1075 l0
-103 -79 0 -78 0 0 700 0 701 110 -3 110 -3 64 -145z"/>
<path d="M860 2320 c0 -25 -19 -81 -145 -426 l-83 -229 235 -3 c130 -1 238 -1
240 1 2 2 -29 91 -68 198 -39 107 -87 237 -106 289 -20 52 -40 113 -45 135
-13 49 -28 68 -28 35z"/>
</g>
</svg>
